HIERARCHY
ROOT Hips
{
	OFFSET 0.000000 0.000000 0.000000
	CHANNELS 6 Xposition Yposition Zposition Xrotation Yrotation Zrotation
	JOINT LeftUpLeg_virtual
	{
		OFFSET 0.000000 0.000000 0.000000
		CHANNELS 3 Xrotation Yrotation Zrotation
		JOINT LeftUpLeg
		{
			OFFSET 13.026900 -6.336304 -1.092800
			CHANNELS 3 Xrotation Yrotation Zrotation
			JOINT LeftLeg
			{
				OFFSET 0.524474 -46.096886 9.782700
				CHANNELS 3 Xrotation Yrotation Zrotation
				JOINT LeftFoot
				{
					OFFSET -0.524474 -53.427422 -12.948200
					CHANNELS 3 Xrotation Yrotation Zrotation
					JOINT LeftToeBase
					{
						OFFSET 0.192200 -14.009700 16.364100
						CHANNELS 3 Xrotation Yrotation Zrotation
						JOINT LeftToe_End
						{
							OFFSET -1.784700 -0.561700 9.474800
							CHANNELS 3 Xrotation Yrotation Zrotation
							End Site
							{
								OFFSET 0 0 0
							}
						}
					}
				}
			}
		}
	}
	JOINT RightUpLeg_virtual
	{
		OFFSET 0.000000 0.000000 0.000000
		CHANNELS 3 Xrotation Yrotation Zrotation
		JOINT RightUpLeg
		{
			OFFSET -12.883000 -6.336304 -1.092800
			CHANNELS 3 Xrotation Yrotation Zrotation
			JOINT RightLeg
			{
				OFFSET -0.524587 -46.096825 9.782800
				CHANNELS 3 Xrotation Yrotation Zrotation
				JOINT RightFoot
				{
					OFFSET 0.524587 -53.427383 -12.948300
					CHANNELS 3 Xrotation Yrotation Zrotation
					JOINT RightToeBase
					{
						OFFSET -0.192200 -14.009700 16.364100
						CHANNELS 3 Xrotation Yrotation Zrotation
						JOINT RightToe_End
						{
							OFFSET 1.784700 -0.561700 9.474800
							CHANNELS 3 Xrotation Yrotation Zrotation
							End Site
							{
								OFFSET 0 0 0
							}
						}
					}
				}
			}
		}
	}
	JOINT Spine_virtual
	{
		OFFSET 0.000000 0.000000 0.000000
		CHANNELS 3 Xrotation Yrotation Zrotation
		JOINT Spine
		{
			OFFSET 0.072000 7.257294 -0.789700
			CHANNELS 3 Xrotation Yrotation Zrotation
			JOINT Spine1
			{
				OFFSET 0.000000 12.508769 -0.658067
				CHANNELS 3 Xrotation Yrotation Zrotation
				JOINT Spine1_split
				{
					OFFSET 0.000000 12.508769 -0.658067
					CHANNELS 3 Xrotation Yrotation Zrotation
					JOINT Spine2
					{
						OFFSET 0.000000 12.508769 -0.658067
						CHANNELS 3 Xrotation Yrotation Zrotation
						JOINT Neck_virtual
						{
							OFFSET 0.000000 0.000000 0.000000
							CHANNELS 3 Xrotation Yrotation Zrotation
							JOINT Neck
							{
								OFFSET 0.000000 14.033295 7.520400
								CHANNELS 3 Xrotation Yrotation Zrotation
								JOINT Head
								{
									OFFSET 0.000000 8.198502 5.703100
									CHANNELS 3 Xrotation Yrotation Zrotation
									JOINT HeadTop_End
									{
										OFFSET 0.000000 17.760803 13.332701
										CHANNELS 3 Xrotation Yrotation Zrotation
										End Site
										{
											OFFSET 0 0 0
										}
									}
								}
							}
						}
						JOINT LeftShoulder_virtual
						{
							OFFSET 0.000000 0.000000 0.000000
							CHANNELS 3 Xrotation Yrotation Zrotation
							JOINT LeftShoulder
							{
								OFFSET 6.292450 5.785301 -0.669000
								CHANNELS 3 Xrotation Yrotation Zrotation
								JOINT LeftShoulder_split
								{
									OFFSET 6.292450 5.785301 -0.669000
									CHANNELS 3 Xrotation Yrotation Zrotation
									JOINT LeftArm
									{
										OFFSET 13.907140 -6.093903 1.965100
										CHANNELS 3 Xrotation Yrotation Zrotation
										JOINT LeftForeArm
										{
											OFFSET 34.140198 0.000000 0.000000
											CHANNELS 3 Xrotation Yrotation Zrotation
											JOINT LeftHand
											{
												OFFSET 40.960209 0.000000 0.000000
												CHANNELS 3 Xrotation Yrotation Zrotation
												End Site
												{
													OFFSET 0 0 0
												}
											}
										}
									}
								}
							}
						}
						JOINT RightShoulder_virtual
						{
							OFFSET 0.000000 0.000000 0.000000
							CHANNELS 3 Xrotation Yrotation Zrotation
							JOINT RightShoulder
							{
								OFFSET -6.292450 5.785301 -0.669000
								CHANNELS 3 Xrotation Yrotation Zrotation
								JOINT RightShoulder_split
								{
									OFFSET -6.292450 5.785301 -0.669000
									CHANNELS 3 Xrotation Yrotation Zrotation
									JOINT RightArm
									{
										OFFSET -13.907140 -6.093903 1.965100
										CHANNELS 3 Xrotation Yrotation Zrotation
										JOINT RightForeArm
										{
											OFFSET -34.140198 0.000000 0.000000
											CHANNELS 3 Xrotation Yrotation Zrotation
											JOINT RightHand
											{
												OFFSET -40.960209 0.000000 0.000000
												CHANNELS 3 Xrotation Yrotation Zrotation
												End Site
												{
													OFFSET 0 0 0
												}
											}
										}
									}
								}
							}
						}
					}
				}
			}
		}
	}
}
MOTION
Frames: 4
Frame Time: 0.03333333
-5.514865 97.908684 93.410194 0.000000 0.000000 0.000000 26.908268 15.577800 -5.221717 -2.748048 6.477941 6.620228 22.419256 13.386049 0.567976 -21.741800 12.797584 -28.907546 -14.342132 -4.693574 1.998823 0.000000 0.000000 0.000000 28.058403 14.478094 -5.163179 -72.461654 -5.208851 -6.554610 59.784748 -24.735354 2.911352 -0.138202 -0.253862 1.428335 -5.493178 6.701590 5.033276 0.000000 0.000000 0.000000 29.672538 9.717006 -4.158696 5.381623 -1.418241 -0.019175 8.370142 -0.427312 3.800542 1.207941 -0.765088 1.339426 0.000000 0.000000 0.000000 10.487961 0.183401 3.305976 -6.907042 -0.689379 0.166277 -6.700572 6.141177 3.083544 0.000000 0.000000 0.000000 11.703010 -0.446901 3.438956 2.391037 -19.700993 3.524545 1.779975 -1.334558 -3.374802 -40.534669 -21.571918 -41.153894 108.537757 -63.509148 120.353001 0.000000 0.000000 0.000000 10.335220 0.168985 4.048974 3.214280 10.892083 -1.771058 2.586998 5.683723 0.472953 -46.600492 14.064977 35.289012 120.004498 46.680177 -141.563033 0.000000 0.000000 0.000000 
-5.577985 97.336510 93.914452 0.000000 0.000000 0.000000 27.087110 15.743330 -5.285540 -3.048641 6.663449 6.772538 22.993635 13.301026 0.561453 -21.849637 12.796916 -29.473093 -15.102636 -4.804735 2.033101 0.000000 0.000000 0.000000 28.253204 14.657907 -5.223007 -73.267439 -5.357963 -6.757847 60.797310 -24.770128 3.041354 -0.062470 -0.282037 1.415854 -5.970373 6.542742 5.231027 0.000000 0.000000 0.000000 29.901523 9.707998 -4.142263 5.460360 -1.318311 0.020881 7.952820 -0.384676 3.792537 1.211935 -0.773708 1.323761 0.000000 0.000000 0.000000 10.017132 0.208941 3.303396 -7.132027 -0.659385 0.046029 -6.715594 5.936387 3.085379 0.000000 0.000000 0.000000 11.219942 -0.411505 3.428387 2.520188 -19.772368 3.996259 1.786699 -1.293751 -3.317086 -40.998422 -21.709956 -41.054379 106.741889 -64.007779 118.637681 0.000000 0.000000 0.000000 9.863868 0.198310 4.030386 3.287911 10.706396 -2.172438 2.629756 5.721190 0.413874 -47.316508 14.102029 35.730099 119.496823 47.091555 -140.802915 0.000000 0.000000 0.000000 
-5.628133 96.834023 94.396332 0.000000 0.000000 0.000000 27.294727 15.856943 -5.354837 -3.396595 6.921261 6.929341 23.544181 13.222285 0.572669 -21.916241 12.782729 -30.060428 -15.861849 -4.917853 2.050096 0.000000 0.000000 0.000000 28.439436 14.721196 -5.260084 -74.012224 -5.493787 -6.974778 61.693745 -24.738262 3.108408 -0.011806 -0.214035 1.521837 -6.407223 6.413560 5.384026 0.000000 0.000000 0.000000 30.149408 9.675473 -4.127517 5.552033 -1.222893 0.058990 7.509941 -0.343623 3.788233 1.213723 -0.756387 1.314181 0.000000 0.000000 0.000000 9.509868 0.231548 3.304018 -7.348894 -0.608619 -0.093322 -6.723013 5.767040 3.091935 0.000000 0.000000 0.000000 10.704092 -0.377549 3.422621 2.639057 -19.841701 4.441816 1.807831 -1.255134 -3.247613 -41.599370 -21.912181 -41.033379 104.538736 -64.513104 116.482497 0.000000 0.000000 0.000000 9.360592 0.227124 4.017785 3.353622 10.511721 -2.595505 2.711240 5.766423 0.356281 -48.140454 14.084323 36.200669 118.857627 47.580505 -139.915401 0.000000 0.000000 0.000000 
-5.664613 96.373016 94.876511 0.000000 0.000000 0.000000 27.531683 15.889477 -5.423901 -3.773727 7.250122 7.108440 24.098390 13.157700 0.597740 -21.982486 12.771223 -30.629215 -16.594465 -5.033507 2.058034 0.000000 0.000000 0.000000 28.630838 14.663277 -5.275163 -74.679670 -5.642779 -7.172737 62.480863 -24.671325 3.121879 -0.127856 -0.074816 1.621752 -6.725184 6.310789 5.518177 0.000000 0.000000 0.000000 30.421068 9.600276 -4.115338 5.649842 -1.132258 0.090762 7.043030 -0.306103 3.781480 1.218314 -0.715699 1.304497 0.000000 0.000000 0.000000 8.965116 0.249068 3.299805 -7.546682 -0.542811 -0.238122 -6.746527 5.621982 3.114553 0.000000 0.000000 0.000000 10.156262 -0.348615 3.414599 2.747832 -19.909115 4.871311 1.827541 -1.212484 -3.185566 -42.304348 -22.194898 -41.075084 101.964083 -64.996340 113.919182 0.000000 0.000000 0.000000 8.822350 0.252124 4.003918 3.412670 10.314398 -3.030398 2.822008 5.803225 0.301450 -49.030540 13.956315 36.700027 118.097741 48.136711 -138.923001 0.000000 0.000000 0.000000 
